<svg version="1" xmlns="http://www.w3.org/2000/svg" width="333.333" height="333.333" viewBox="0 0 250.000000 250.000000"><path d="M0 25.7c0 22.9.2 25.5 1.5 23.7 1.7-2.5 3.4-9.5 3.5-14.2 0-1.7.5-3.2 1-3.2.6 0 1 .9 1 2s.4 2 .9 2 1.1 1.8 1.5 4c.3 2.2 1 4 1.5 4 1.1 0 .2-7.1-1-8.5C9.4 35 9 33.9 9 33c.1-1.3.3-1.2 1.4.2 1.5 2.1 3.3 2.3 3.9.5.3-.9 1.3-.7 3.7.7 2.3 1.3 3 1.4 2.5.5-.7-1.2 1.5.5 6.2 4.8.8.7 3 1.5 5.1 1.9C36 42.3 43 44 43 44.3c.1.3 1.8 26.6 2.6 38.2.3 5.5 1 13.1 1.5 17 .5 3.8 1.4 10.8 2 15.5.6 4.6 1.5 9.2 2 10.1.5 1 1.8 7.6 2.9 14.6 1.1 7 2.5 15.1 3.1 18 1.4 6.6.8 8.8-3.6 14.1-3.4 3.9-7.5 5.6-7.5 3.1 0-.6-.8-.2-1.8.9-.9 1.1-4.8 3.3-8.7 5-16.9 7.2-19.3 8.2-20.6 8.2-1.4-.1-4.8-4.1-11.4-13.5L0 170.6V250h250V0H0v25.7zM37.1 2c2.2 1.2 4.9 6 4.9 8.8 0 2.3-4.3 5.5-6.7 5-.9-.2-2.2-1.9-2.9-3.8-1.1-3-1.3-3.2-1.3-1.1-.1 3-1.3 1.9-3.1-2.7-1.1-2.8-1-3.5.3-5C30.2 1.1 34.4.6 37.1 2zm142.4 3c.9 1.5-2.2 4.2-4.5 3.8-1.9-.3-2-.4-.5-2.6 1.7-2.3 4-2.9 5-1.2zM104 58c0 .5-.5 1-1.1 1-.5 0-.7-.5-.4-1 .3-.6.8-1 1.1-1 .2 0 .4.4.4 1zm16 3c0 1.1.4 2 .9 2s1.1 1.8 1.5 4c.3 2.2 1 4 1.5 4 1.1 0 .2-7.1-1-8.5-.5-.5-.9-1.6-.9-2.5.1-1.3.3-1.2 1.4.2 1.5 2.1 3.3 2.3 3.9.5.3-.9 1.3-.7 3.7.7 1.8 1 3 1.4 2.6.8-.5-.8-.1-1 .8-.6.9.3 1.6.9 1.6 1.3s2.3 1.5 5 2.5c2.8 1 5 2.2 5 2.8 0 .5.4.7.9.4.5-.3 2.3-.1 4 .5 2.4.9 3.5.8 4.8-.2 1.2-1 1.5-1 .9-.2-.4.7-.5 1.3-.2 1.3.2 0 1.3.3 2.3.6 1.5.5 1.5.4.3-.5-1.3-.9-1.3-1.1.1-1.1.8 0 2.6 1.1 3.9 2.5 1.3 1.4 3 2.5 3.8 2.5 1.2 0 1-.6-.6-2.3-2.4-2.5-3-4.5-.9-3 .6.5 3.6 1 6.6 1.2 3 .1 6.3.6 7.2 1.2 1 .5 3 .9 4.4.9 1.4 0 3.5.4 4.5 1 1.7.9 6 7.2 6 8.8 0 1.1-9.7 7.2-11.4 7.2-1.6 0-4.6 3.7-4.6 5.7 0 .7 1.1 1.3 2.4 1.3 1.9 0 2.2.4 1.9 2.4-.6 2.8 1.2 4.2 3.2 2.6 1.2-1 1.6-.9 2.1.6.4 1.1 1.6 4.1 2.6 6.8 1.1 2.8 1.8 6.9 1.7 9.5-.2 2.5.1 7 .5 9.9.6 4 .4 5.8-.7 7.5-.8 1.3-2.2 7-3.1 12.8-.9 5.8-2.6 13-3.8 16-1.1 3-2.4 8.8-2.9 13-.8 6.8-.6 8.2 1.2 12.4 2.2 5 2.2 7.2-.1 18-1.5 7.2-2.8 8.2-8.2 6.2-10-3.9-9.8-3.6-16.6-22.5-.3-.8 1.1-1.2 4.9-1.2 5.9 0 12.5-1.5 13.4-3 .4-.6-.4-.6-2 0-5.2 2-19.3 1.1-39.1-2.6-5.6-1-10.7-1.4-12.9-1l-3.8.7 9.8 4.9c8 3.9 10.2 5.4 11.5 8.2 1.5 3.1 1.5 3.7-.2 8.2-.9 2.7-1.5 5.3-1.2 5.7.2.4-.4 2.5-1.5 4.5-1.9 3.5-2 6.1-.2 4.9.5-.2.8.7.9 2 0 1.4-.2 2.5-.5 2.5-.7 0-3.9-3.5-14.6-16.2-7.9-9.3-13.2-14.6-20.4-20-11-8.2-25.3-22.3-28.8-28.3-3.4-5.7-4.8-12.9-3.5-17.1 1-2.9 1.6-3.3 5.2-3.6 2.3-.2 4.3-.9 4.6-1.6.3-.9-.2-1-2.1-.3-6.4 2.5-17.8-6.2-21.6-16.4-2.4-6.3-3.9-19.9-2.3-20.9.6-.3 1.3-.2 1.7.4 1.2 2 4.1 1 5.9-2.1 1.4-2.4 2.1-2.8 3.1-1.9.8.7 2.2 1 3.2.8 1.2-.2 2.6.9 4.1 3 2.6 3.8 2.6 4.2.9 4.2-.7 0-2.2.7-3.3 1.6-1 .8-1.4 1.3-.8 1 2.3-1.1 7.4.6 7.4 2.5 0 1.6.2 1.7 2.8.3 2.4-1.2 2.7-1.2 3 .2.6 2.4 2.6 1 3.3-2.2.5-2.5.7-2.1 1.8 3.1 1.8 8.2 2.4 9.1 4.4 7.1 1.4-1.5 1.5-1.3 1 1.8-.3 2-.1 3.6.7 4.1 1.9 1.2 2.1.2 2.5-9.7.6-16.2 1.8-19.1 12.9-30.8 6.3-6.8 8.4-11 9.2-18.9.4-3.4 1.1-6.1 1.5-6.1.5 0 .9.9.9 2zm32 4c0 .5-.5 1-1.1 1-.5 0-.7-.5-.4-1 .3-.6.8-1 1.1-1 .2 0 .4.4.4 1zm67.5 19.2c.8 3.2-1.8 7-2.9 4.3-.3-.8-1.2-1.5-2.1-1.5-.8 0-1.5-.9-1.5-2 0-1.3-.7-2-1.9-2-3.4 0-3.4-1.9 0-3.8 1.7-.9 3.9-2.5 4.8-3.5 1.5-1.7 1.6-1.6 2.3 2 .4 2.1 1 5 1.3 6.5zM203 79.8c0 3.3.3 3.8 2.3 3.7 1.2 0 2.4.4 2.6 1 .3.6-1.2 1.1-3.2 1.1-3.4.1-3.7-.1-3.7-2.5 0-1.5-.5-3.2-1.2-3.9-.9-.9-.8-1.2.8-1.2s1.7-.2.4-1c-1.3-.8-1.2-1 .3-1 1.3 0 1.7.8 1.7 3.8zm-59.1 163.6c-.3.3-1.1-.5-1.8-1.7-1.3-2.1-1.2-2.1.5-.5 1 1 1.6 2 1.3 2.2z"/><path d="M147.8 90.2c-1.6.5-2.8 1.4-2.8 1.9s-.8.9-1.7.9c-1.1.1-.7.6 1.2 1.4 1.7.8 3.4 1 4 .5.5-.5 1.6-.9 2.4-.9.9 0 .7.6-.9 2-1.3 1.1-2.9 2-3.6 2-1.8 0-2.6 1.7-1.9 4 .9 2.8 3.3 2.5 4.7-.5 1.3-2.9 2.1-3.1 4.2-1 2.1 2.2 2.7 1.9 2-1-.4-1.7-.2-2.5.7-2.5 1-.1.9-.5-.3-1.4-3.1-2.3-2-2.9 4.2-2.3 6.3.7 11.6-.5 10.4-2.4-.3-.6-1.9-.9-3.5-.5-1.5.3-3.1.1-3.4-.4-.8-1.3-12.2-1.1-15.7.2zM182 154c0 .5.5 1 1.1 1 .5 0 .7-.5.4-1-.3-.6-.8-1-1.1-1-.2 0-.4.4-.4 1zM43 165.5c0 1.1.5 2.7 1 3.5.8 1.2 1 1.2 1-.5 0-1.1-.5-2.7-1-3.5-.8-1.2-1-1.2-1 .5zM24 175.7c0 1.2.5 2.5 1 2.8 1.3.8 1.3-1.5 0-3.5-.8-1.2-1-1.1-1 .7z"/></svg>